<?xml version="1.0" encoding="UTF-8"?>
<svg version="1.1" xmlns="http://www.w3.org/2000/svg" width="100" height="100">
<path d="M0 0 C4.17605776 3.67742399 6.77882414 7.50470863 8 13 C8 14.32 8 15.64 8 17 C9.0828125 17.309375 9.0828125 17.309375 10.1875 17.625 C13.80089864 19.39155045 16.13870939 21.4649907 18 25 C18.93580217 29.06368887 19.53138581 33.12333366 18.3828125 37.1796875 C18.25648437 37.78039063 18.13015625 38.38109375 18 39 C18.66 39.66 19.32 40.32 20 41 C20.93301465 46.0891708 20.9972234 49.90308039 20 55 C20.020625 56.0725 20.04125 57.145 20.0625 58.25 C20 61 20 61 18 63 C13.42350598 63.59030319 8.79744797 63.60787331 4.1875 63.75 C2.90294922 63.80542969 1.61839844 63.86085938 0.29492188 63.91796875 C-1.56229492 63.98177734 -1.56229492 63.98177734 -3.45703125 64.046875 C-5.1582312 64.10633301 -5.1582312 64.10633301 -6.89379883 64.16699219 C-10.04713219 63.99746613 -12.12691368 63.22745535 -15 62 C-16.86622755 62.8518387 -16.86622755 62.8518387 -18.5 64.375 C-23.94029855 68.15011211 -29.61460182 67.8919551 -36 67 C-41.5574117 64.41977314 -44.98917566 60.06411328 -48.3125 55 C-49.24431421 52.28926776 -49.12917235 49.84179171 -49 47 C-50.15628906 47.03480469 -50.15628906 47.03480469 -51.3359375 47.0703125 C-52.33882812 47.08835938 -53.34171875 47.10640625 -54.375 47.125 C-55.37273438 47.14820313 -56.37046875 47.17140625 -57.3984375 47.1953125 C-60 47 -60 47 -62 45 C-62.30078125 41.91796875 -62.30078125 41.91796875 -62.3125 38.1875 C-62.32925781 36.96417969 -62.34601562 35.74085937 -62.36328125 34.48046875 C-61.97630155 30.77295358 -61.2746089 28.91917021 -59 26 C-58.01 25.525625 -57.02 25.05125 -56 24.5625 C-52.22250852 22.59505652 -51.81028357 20.77142411 -50 17 C-47.22728142 14.18219656 -44.15251792 11.10805813 -40.0546875 10.90234375 C-38.03645833 10.93489583 -36.01822917 10.96744792 -34 11 C-33.3185177 9.10820797 -33.3185177 9.10820797 -33 7 C-33.66 6.34 -34.32 5.68 -35 5 C-33.700625 4.6596875 -33.700625 4.6596875 -32.375 4.3125 C-28.85705144 3.1504758 -28.85705144 3.1504758 -26 0.5 C-17.99988606 -6.16676162 -8.4419027 -5.32105143 0 0 Z " fill="#C0E2DB" transform="translate(72,17)"/>
<path d="M0 0 C0.66 0.99 1.32 1.98 2 3 C3.65 2.67 5.3 2.34 7 2 C7.433125 2.78375 7.86625 3.5675 8.3125 4.375 C9.89220247 7.21698375 9.89220247 7.21698375 13 9 C12.125 13.875 12.125 13.875 11 15 C1.80408716 16.1064601 -7.84685681 16.63703183 -17 15 C-17.66 14.34 -18.32 13.68 -19 13 C-18.625 10.375 -18.625 10.375 -18 8 C-16.68 8 -15.36 8 -14 8 C-13.67 9.32 -13.34 10.64 -13 12 C-13 11.34 -13 10.68 -13 10 C-11.02 9.67 -9.04 9.34 -7 9 C-7 8.34 -7 7.68 -7 7 C-6.67 6.67 -6.34 6.34 -6 6 C-6.66 6 -7.32 6 -8 6 C-7.625 3.0625 -7.625 3.0625 -7 0 C-4.27584084 -1.36207958 -2.87220643 -0.86166193 0 0 Z " fill="#F6F4E8" transform="translate(78,64)"/>
<path d="M0 0 C3.80635497 3.20760251 7.54563567 6.40746109 11 10 C10.34 11.32 9.68 12.64 9 14 C5.125 12.125 5.125 12.125 4 11 C3.67 18.59 3.34 26.18 3 34 C1.35 34 -0.3 34 -2 34 C-2.33 26.41 -2.66 18.82 -3 11 C-3.99 11.99 -4.98 12.98 -6 14 C-7.32 13.34 -8.64 12.68 -10 12 C-8.52278578 8.54798361 -6.56205999 6.35038064 -3.875 3.75 C-3.15054688 3.04359375 -2.42609375 2.3371875 -1.6796875 1.609375 C-1.12539063 1.07828125 -0.57109375 0.5471875 0 0 Z " fill="#955B4C" transform="translate(51,40)"/>
<path d="M0 0 C12.21 0 24.42 0 37 0 C37 3.3 37 6.6 37 10 C35.35 10 33.7 10 32 10 C32 8.35 32 6.7 32 5 C23.09 5 14.18 5 5 5 C5 6.65 5 8.3 5 10 C3.35 10 1.7 10 0 10 C0 6.7 0 3.4 0 0 Z " fill="#8D5547" transform="translate(33,31)"/>
<path d="M0 0 C3.69900008 0.88776002 7.34550461 1.94581864 11 3 C11 3.99 11 4.98 11 6 C11.99 6.33 12.98 6.66 14 7 C13.67 8.65 13.34 10.3 13 12 C7.85910079 12.90249856 3.30273626 12.97986395 -1.9375 12.5625 C-2.62134766 12.51029297 -3.30519531 12.45808594 -4.00976562 12.40429688 C-5.67371169 12.27630102 -7.3369473 12.13912281 -9 12 C-9.33 10.68 -9.66 9.36 -10 8 C-7.31158141 5.74754119 -5.35358125 4.11786042 -2 3 C-1.34 2.01 -0.68 1.02 0 0 Z " fill="#F8F6EA" transform="translate(22,51)"/>
<path d="M0 0 C1.24546405 2.49092811 0.7767578 3.41080733 0 6 C1.32 5.67 2.64 5.34 4 5 C3.67 5.66 3.34 6.32 3 7 C2.34 7 1.68 7 1 7 C1 7.66 1 8.32 1 9 C-0.98 9.33 -2.96 9.66 -5 10 C-5 10.66 -5 11.32 -5 12 C-5.66 11.67 -6.32 11.34 -7 11 C-6.67 10.01 -6.34 9.02 -6 8 C-7.32 7.67 -8.64 7.34 -10 7 C-8.68 6.67 -7.36 6.34 -6 6 C-6 5.34 -6 4.68 -6 4 C-4.35 3.67 -2.7 3.34 -1 3 C-0.67 2.01 -0.34 1.02 0 0 Z " fill="#B7AEA5" transform="translate(70,64)"/>
<path d="M0 0 C1.98 0 3.96 0 6 0 C6.33 0.66 6.66 1.32 7 2 C9.02463255 2.65213292 9.02463255 2.65213292 11 3 C11 3.66 11 4.32 11 5 C7.7 5 4.4 5 1 5 C1 4.34 1 3.68 1 3 C-1.97 3 -4.94 3 -8 3 C-8 2.67 -8 2.34 -8 2 C-5.36 1.67 -2.72 1.34 0 1 C0 0.67 0 0.34 0 0 Z " fill="#EFF9F7" transform="translate(45,20)"/>
<path d="M0 0 C1.98 0 3.96 0 6 0 C6.33 0.99 6.66 1.98 7 3 C9.475 3.495 9.475 3.495 12 4 C12 4.33 12 4.66 12 5 C8.37 5 4.74 5 1 5 C1 4.34 1 3.68 1 3 C-1.97 3 -4.94 3 -8 3 C-8 2.67 -8 2.34 -8 2 C-5.36 1.67 -2.72 1.34 0 1 C0 0.67 0 0.34 0 0 Z " fill="#F3FBF9" transform="translate(79,46)"/>
</svg>
