<?xml version="1.0" standalone="no"?>
<!DOCTYPE svg PUBLIC "-//W3C//DTD SVG 20010904//EN"
 "http://www.w3.org/TR/2001/REC-SVG-20010904/DTD/svg10.dtd">
<svg version="1.0" xmlns="http://www.w3.org/2000/svg"
 width="512.000000pt" height="512.000000pt" viewBox="0 0 512.000000 512.000000"
 preserveAspectRatio="xMidYMid meet">

<g transform="translate(0.000000,512.000000) scale(0.100000,-0.100000)"
fill="#000000" stroke="none">
<path d="M2354 5110 c-1245 -103 -1967 -942 -2033 -2364 -29 -626 87 -1241
316 -1666 329 -613 840 -952 1593 -1057 172 -24 572 -23 755 1 510 67 891 252
1209 587 153 161 251 320 320 517 55 159 70 253 70 442 1 182 -13 267 -65 424
-104 312 -348 576 -684 741 l-92 45 -7 77 c-35 399 -213 731 -480 897 -268
168 -646 217 -985 130 -199 -51 -408 -180 -539 -333 -96 -111 -106 -89 102
-230 l183 -123 80 80 c134 134 288 193 509 193 301 1 484 -98 594 -319 31 -64
79 -226 69 -236 -3 -3 -32 -1 -65 4 -219 36 -601 31 -806 -10 -417 -85 -712
-332 -795 -665 -26 -106 -23 -297 5 -398 100 -354 419 -593 852 -638 251 -26
537 34 731 153 260 160 434 436 509 808 12 57 23 106 25 108 6 6 91 -55 148
-106 119 -104 198 -234 236 -384 44 -171 36 -335 -23 -511 -51 -148 -112 -243
-246 -378 -252 -253 -525 -379 -935 -430 -129 -16 -473 -16 -595 0 -430 56
-749 199 -1000 451 -211 210 -357 482 -444 822 -69 269 -96 500 -96 818 0 237
11 378 45 580 125 744 491 1224 1084 1420 229 76 426 104 711 104 279 -1 477
-31 702 -104 240 -79 439 -201 613 -375 179 -179 315 -403 404 -668 21 -65 42
-121 45 -124 3 -3 100 21 216 53 l211 58 -6 36 c-4 19 -27 91 -52 160 -252
699 -745 1153 -1448 1335 -275 71 -636 100 -941 75z m763 -2635 c168 -22 163
-21 163 -64 0 -52 -27 -200 -51 -279 -34 -109 -103 -233 -168 -299 -100 -103
-221 -156 -389 -172 -270 -25 -507 66 -595 228 -76 138 -49 302 68 416 87 86
235 150 401 174 103 15 443 12 571 -4z"/>
</g>
</svg>
